<svg xmlns="http://www.w3.org/2000/svg" width="311.438" height="295.184" viewBox="862.062 767.679 311.438 295.184"><g data-name="Path 170"><path d="M1101.095 1025.922c-9.26-9.654.15-16.333 7.956-22.86 7.38-6.169 15.359-11.839 21.528-20.178-13.749 4.246-27.489 8.508-41.242 12.731-35.919 11.034-72.069 16.557-109.02 11.941-90.61-11.32-126.226-101.058-62.823-161.508 39.525-37.68 91.079-55.253 147.937-61.003 3.974-.402 8.029.811 12.164 4.767-5.557 1.259-11.077 2.687-16.672 3.74-40.937 7.706-79.112 21.167-112.59 44.063-21.41 14.646-36.893 32.74-42.983 54.818-13.594 49.268 29.303 96.403 88.801 99.052 41.621 1.856 80.834-8.52 121.04-22.693-15.015-9.258-38.699-3.367-51.393-21.09 18.634 2.555 33.417 4.904 48.385 6.54 12.998 1.425 26.232 1.904 39.305 3.05 13.843 1.212 18.739 6.404 12.066 16.56-6.387 9.728-15.811 18.608-25.47 26.546-10.76 8.844-23.29 16.198-36.989 25.524Z" fill="#f9f9f9" fill-rule="evenodd"/><path d="M1101.095 1025.922c-9.26-9.654.15-16.333 7.956-22.86 7.38-6.169 15.359-11.839 21.528-20.178-13.749 4.246-27.489 8.508-41.242 12.731-35.919 11.034-72.069 16.557-109.02 11.941-90.61-11.32-126.226-101.058-62.823-161.508 39.525-37.68 91.079-55.253 147.937-61.003 3.974-.402 8.029.811 12.164 4.767-5.557 1.259-11.077 2.687-16.672 3.74-40.937 7.706-79.112 21.167-112.59 44.063-21.41 14.646-36.893 32.74-42.983 54.818-13.594 49.268 29.303 96.403 88.801 99.052 41.621 1.856 80.834-8.52 121.04-22.693-15.015-9.258-38.699-3.367-51.393-21.09 18.634 2.555 33.417 4.904 48.385 6.54 12.998 1.425 26.232 1.904 39.305 3.05 13.843 1.212 18.739 6.404 12.066 16.56-6.387 9.728-15.811 18.608-25.47 26.546-10.76 8.844-23.29 16.198-36.989 25.524Z" stroke-linejoin="round" stroke-linecap="round" stroke-width="5" stroke="#de3333" fill="transparent"/></g></svg>