<svg xmlns="http://www.w3.org/2000/svg" width="76.721" height="76.721" viewBox="76.282 -51.143 76.721 76.721"><path d="M91.733-17.918a64.19 64.19 0 0 0 28.088 28.067L129.2.75a4.276 4.276 0 0 1 4.326-1.045 48.52 48.52 0 0 0 15.216 2.43 4.248 4.248 0 0 1 4.262 4.262v14.918a4.248 4.248 0 0 1-4.262 4.262c-40.023 0-72.459-32.436-72.459-72.458a4.261 4.261 0 0 1 4.263-4.263h14.918a4.248 4.248 0 0 1 4.262 4.263 48.52 48.52 0 0 0 2.43 15.216 4.276 4.276 0 0 1-1.045 4.326l-9.377 9.42Z" fill="#f9f9f9" fill-rule="evenodd" data-name="Path 1245"/></svg>