<svg xmlns="http://www.w3.org/2000/svg" width="66.71" height="66.643"><path d="M66.245 23.931 58.792 4.553a7.109 7.109 0 0 0-9.35-4.012l-37.244 15.44a7.075 7.075 0 0 0-3.93 9.053l1.023 2.733H6.942A6.95 6.95 0 0 0 0 34.71v24.992a6.95 6.95 0 0 0 6.942 6.942h47.206A6.95 6.95 0 0 0 61.09 59.7V34.709a6.824 6.824 0 0 0-.1-1.124l1.29-.522a7.135 7.135 0 0 0 3.965-9.132ZM6.942 29.99h47.206a4.714 4.714 0 0 1 4.693 4.443H2.249a4.714 4.714 0 0 1 4.693-4.443Zm11.164-6.691 7.424-3.713 1.526 3.817-7.424 3.712-1.526-3.816ZM58.869 59.7a4.726 4.726 0 0 1-4.721 4.72H6.942a4.726 4.726 0 0 1-4.72-4.72V45.539h56.647v14.162Zm0-16.383H2.22v-6.665H58.87v6.665Zm2.577-12.307-1.16.47a6.945 6.945 0 0 0-6.138-3.713H23.294l5.67-2.836c.517-.258.75-.87.536-1.406l-2.356-5.887a1.11 1.11 0 0 0-1.528-.581l-9.418 4.712a1.11 1.11 0 0 0-.534 1.406l1.837 4.592h-5.838l-1.315-3.508a4.863 4.863 0 0 1 2.7-6.22L50.294 2.6a4.88 4.88 0 0 1 6.424 2.756l7.453 19.378a4.904 4.904 0 0 1-2.724 6.277Z" fill="#f8f8f8" fill-rule="evenodd" data-name="Path 1805"/></svg>