<svg xmlns="http://www.w3.org/2000/svg" width="62.414" height="26.006" viewBox="0 20.805 62.414 26.006"><path d="M59.813 20.805H2.601c-1.56 0-2.601 1.04-2.601 2.6v13.003C0 42.13 4.681 46.81 10.402 46.81h41.61c5.72 0 10.402-4.68 10.402-10.402V23.405c0-1.56-1.04-2.6-2.6-2.6ZM28.606 39.009H13.003c-1.56 0-2.6-1.04-2.6-2.6 0-1.561 1.04-2.602 2.6-2.602h15.603c1.56 0 2.6 1.04 2.6 2.601 0 1.56-1.04 2.6-2.6 2.6Zm20.805-7.802H44.21c-1.56 0-2.6-1.04-2.6-2.6 0-1.561 1.04-2.601 2.6-2.601h5.2c1.561 0 2.602 1.04 2.602 2.6s-1.04 2.6-2.601 2.6Z" fill="#f9f9f9" fill-rule="evenodd" data-name="Path 1242"/></svg>