<svg xmlns="http://www.w3.org/2000/svg" width="671.827" height="685.191" viewBox="546.959 6372.857 671.827 685.191"><path d="M774.979 7013.842c13.441-3.24 26.883-6.48 42.51-10.25-5.636-5.85-9.676-10.538-14.04-14.492-92.97-84.22-143.068-201.037-135.005-314.754 5.19-73.25 33.678-125.096 73.754-166.734 45.26-47.021 104.755-61.71 173.138-56.677 35.044 2.578 70.255 19.051 105.395 42.313 9.154 6.062 18.14 12.926 27.395 23.258-5.376-1.564-11.157-1.465-16.067-4.925-120.914-85.134-269.297-39.23-322.967 90.631-21.008 50.833-25.305 110.104-9.624 178.618 18.237 79.695 76.757 165.912 139.896 204.575-7.113-28.184-30.421-56.31-22.664-86.236 18.725 35.21 35.399 66.53 52.044 97.867 5.58 10.504 6.224 20.638-1.887 21.802-27.076 3.893-54.792 5.972-82.432 8.214-1.905.156-5.196-4.088-7.846-6.285-.53-2.307-1.067-4.619-1.6-6.925Z" fill="#8f3be2" fill-rule="evenodd" data-name="Path 1807"/></svg>